<svg version="1.0" xmlns="http://www.w3.org/2000/svg"
 width="176.000000pt" height="176.000000pt" viewBox="0 0 176.000000 176.000000"
 preserveAspectRatio="xMidYMid meet">
<g transform="translate(0.000000,176.000000) scale(0.100000,-0.100000)"
fill="#000000" stroke="none">
<path d="M813 1514 l-93 -94 98 -98 97 -97 3 56 3 56 37 -7 c197 -40 338 -197
358 -400 22 -223 -140 -438 -360 -479 -37 -7 -210 -11 -448 -11 l-388 0 0
-101 0 -100 438 3 437 3 79 28 c130 46 255 138 325 240 76 112 111 214 116
347 15 341 -214 617 -557 675 -35 5 -38 8 -38 40 0 19 -3 35 -7 34 -5 0 -50
-43 -100 -95z"/>
<path d="M725 1523 c-106 -22 -239 -97 -317 -179 -64 -67 -81 -90 -116 -159
-105 -210 -92 -460 36 -653 l35 -52 161 0 c158 0 160 1 126 17 -54 26 -153
131 -182 193 -112 241 -6 523 233 616 24 10 46 19 48 21 2 1 -14 20 -37 41
-23 22 -42 44 -42 51 0 7 23 35 51 62 48 47 49 52 4 42z"/>
<path d="M1540 485 l0 -45 -73 0 c-66 0 -76 -3 -98 -26 -40 -43 -130 -109
-194 -142 l-60 -31 213 -1 212 0 0 -50 0 -50 95 95 c52 52 95 99 95 105 0 10
-174 190 -185 190 -3 0 -5 -20 -5 -45z"/>
</g>
</svg>
